HIERARCHY
ROOT Hips
{
  OFFSET 0.546397 100.972 1.86351
  CHANNELS 6 Xposition Yposition Zposition Zrotation Xrotation Yrotation
  JOINT Spine
  {
    OFFSET 0 10.1816 0.1315
    CHANNELS 6 Xposition Yposition Zposition Zrotation Xrotation Yrotation
    JOINT Spine1
    {
      OFFSET 0 10.0835 -1.0008
      CHANNELS 6 Xposition Yposition Zposition Zrotation Xrotation Yrotation
      JOINT Spine2
      {
        OFFSET 0 9.1 -1.3734
        CHANNELS 6 Xposition Yposition Zposition Zrotation Xrotation Yrotation
        JOINT Neck
        {
          OFFSET 0 16.6717 -2.5162
          CHANNELS 6 Xposition Yposition Zposition Zrotation Xrotation Yrotation
          JOINT Head
          {
            OFFSET 0 9.6179 1.685
            CHANNELS 6 Xposition Yposition Zposition Zrotation Xrotation Yrotation
            JOINT HeadTop_End
            {
              OFFSET 0 17.8152 2.585
              CHANNELS 6 Xposition Yposition Zposition Zrotation Xrotation Yrotation
              End Site
              {
                OFFSET 0 0 0
              }
            }
            JOINT LeftEye
            {
              OFFSET 3.0676 6.4095 9.2836
              CHANNELS 6 Xposition Yposition Zposition Zrotation Xrotation Yrotation
              End Site
              {
                OFFSET 0 0 0
              }
            }
            JOINT RightEye
            {
              OFFSET -3.0676 6.4095 9.2835
              CHANNELS 6 Xposition Yposition Zposition Zrotation Xrotation Yrotation
              End Site
              {
                OFFSET 0 0 0
              }
            }
          }
        }
        JOINT LeftShoulder
        {
          OFFSET 4.5704 10.946 -2.628
          CHANNELS 6 Xposition Yposition Zposition Zrotation Xrotation Yrotation
          JOINT LeftArm
          {
            OFFSET 10.5924 -0.5246 -2.2321
            CHANNELS 6 Xposition Yposition Zposition Zrotation Xrotation Yrotation
            JOINT LeftForeArm
            {
              OFFSET 27.8415 -0.0001 0
              CHANNELS 6 Xposition Yposition Zposition Zrotation Xrotation Yrotation
              JOINT LeftHand
              {
                OFFSET 28.3288 0 0
                CHANNELS 6 Xposition Yposition Zposition Zrotation Xrotation Yrotation
                JOINT LeftHandThumb1
                {
                  OFFSET 2.4661 -1.575 2.6824
                  CHANNELS 6 Xposition Yposition Zposition Zrotation Xrotation Yrotation
                  JOINT LeftHandThumb2
                  {
                    OFFSET 3.2298 -1.8647 1.8647
                    CHANNELS 6 Xposition Yposition Zposition Zrotation Xrotation Yrotation
                    JOINT LeftHandThumb3
                    {
                      OFFSET 2.6526 -1.5315 1.5315
                      CHANNELS 6 Xposition Yposition Zposition Zrotation Xrotation Yrotation
                      End Site
                      {
                        OFFSET 1.9546 -1.1285 1.1285
                      }
                    }
                  }
                }
                JOINT LeftHandIndex1
                {
                  OFFSET 9.1093 -0.5171 2.2601
                  CHANNELS 6 Xposition Yposition Zposition Zrotation Xrotation Yrotation
                  JOINT LeftHandIndex2
                  {
                    OFFSET 3.6764 0 0
                    CHANNELS 6 Xposition Yposition Zposition Zrotation Xrotation Yrotation
                    JOINT LeftHandIndex3
                    {
                      OFFSET 2.8831 0 0
                      CHANNELS 6 Xposition Yposition Zposition Zrotation Xrotation Yrotation
                      End Site
                      {
                        OFFSET 2.3927 0 0
                      }
                    }
                  }
                }
                JOINT LeftHandMiddle1
                {
                  OFFSET 9.5334 0 0
                  CHANNELS 6 Xposition Yposition Zposition Zrotation Xrotation Yrotation
                  JOINT LeftHandMiddle2
                  {
                    OFFSET 3.6982 0 0
                    CHANNELS 6 Xposition Yposition Zposition Zrotation Xrotation Yrotation
                    JOINT LeftHandMiddle3
                    {
                      OFFSET 2.9509 0 0
                      CHANNELS 6 Xposition Yposition Zposition Zrotation Xrotation Yrotation
                      End Site
                      {
                        OFFSET 2.8339 0 0
                      }
                    }
                  }
                }
                JOINT LeftHandRing1
                {
                  OFFSET 9.1045 -0.0439 -1.8651
                  CHANNELS 6 Xposition Yposition Zposition Zrotation Xrotation Yrotation
                  JOINT LeftHandRing2
                  {
                    OFFSET 3.154 0 0
                    CHANNELS 6 Xposition Yposition Zposition Zrotation Xrotation Yrotation
                    JOINT LeftHandRing3
                    {
                      OFFSET 2.9377 0 0
                      CHANNELS 6 Xposition Yposition Zposition Zrotation Xrotation Yrotation
                      End Site
                      {
                        OFFSET 2.6475 0 0
                      }
                    }
                  }
                }
                JOINT LeftHandPinky1
                {
                  OFFSET 8.0778 -0.4887 -3.8061
                  CHANNELS 6 Xposition Yposition Zposition Zrotation Xrotation Yrotation
                  JOINT LeftHandPinky2
                  {
                    OFFSET 3.6 0 0
                    CHANNELS 6 Xposition Yposition Zposition Zrotation Xrotation Yrotation
                    JOINT LeftHandPinky3
                    {
                      OFFSET 2.1142 0 0
                      CHANNELS 6 Xposition Yposition Zposition Zrotation Xrotation Yrotation
                      End Site
                      {
                        OFFSET 1.9757 0 0
                      }
                    }
                  }
                }
              }
            }
          }
        }
        JOINT RightShoulder
        {
          OFFSET -4.57 10.9462 -2.628
          CHANNELS 6 Xposition Yposition Zposition Zrotation Xrotation Yrotation
          JOINT RightArm
          {
            OFFSET -10.5928 -0.5248 -2.2321
            CHANNELS 6 Xposition Yposition Zposition Zrotation Xrotation Yrotation
            JOINT RightForeArm
            {
              OFFSET -27.8415 0 0
              CHANNELS 6 Xposition Yposition Zposition Zrotation Xrotation Yrotation
              JOINT RightHand
              {
                OFFSET -28.3288 0 0.0001
                CHANNELS 6 Xposition Yposition Zposition Zrotation Xrotation Yrotation
                JOINT RightHandPinky1
                {
                  OFFSET -8.0767 -0.4885 -3.806
                  CHANNELS 6 Xposition Yposition Zposition Zrotation Xrotation Yrotation
                  JOINT RightHandPinky2
                  {
                    OFFSET -3.6 0 0.0001
                    CHANNELS 6 Xposition Yposition Zposition Zrotation Xrotation Yrotation
                    JOINT RightHandPinky3
                    {
                      OFFSET -2.1142 0 0
                      CHANNELS 6 Xposition Yposition Zposition Zrotation Xrotation Yrotation
                      End Site
                      {
                        OFFSET -1.9757 0 0
                      }
                    }
                  }
                }
                JOINT RightHandRing1
                {
                  OFFSET -9.1036 -0.0439 -1.8651
                  CHANNELS 6 Xposition Yposition Zposition Zrotation Xrotation Yrotation
                  JOINT RightHandRing2
                  {
                    OFFSET -3.154 0 0
                    CHANNELS 6 Xposition Yposition Zposition Zrotation Xrotation Yrotation
                    JOINT RightHandRing3
                    {
                      OFFSET -2.9377 0 0
                      CHANNELS 6 Xposition Yposition Zposition Zrotation Xrotation Yrotation
                      End Site
                      {
                        OFFSET -2.6475 0 0
                      }
                    }
                  }
                }
                JOINT RightHandMiddle1
                {
                  OFFSET -9.5325 0 0
                  CHANNELS 6 Xposition Yposition Zposition Zrotation Xrotation Yrotation
                  JOINT RightHandMiddle2
                  {
                    OFFSET -3.6982 0 0
                    CHANNELS 6 Xposition Yposition Zposition Zrotation Xrotation Yrotation
                    JOINT RightHandMiddle3
                    {
                      OFFSET -2.9509 0 0
                      CHANNELS 6 Xposition Yposition Zposition Zrotation Xrotation Yrotation
                      End Site
                      {
                        OFFSET -2.8339 0 0.0001
                      }
                    }
                  }
                }
                JOINT RightHandIndex1
                {
                  OFFSET -9.1083 -0.5168 2.2601
                  CHANNELS 6 Xposition Yposition Zposition Zrotation Xrotation Yrotation
                  JOINT RightHandIndex2
                  {
                    OFFSET -3.6764 0 0
                    CHANNELS 6 Xposition Yposition Zposition Zrotation Xrotation Yrotation
                    JOINT RightHandIndex3
                    {
                      OFFSET -2.8831 0 0
                      CHANNELS 6 Xposition Yposition Zposition Zrotation Xrotation Yrotation
                      End Site
                      {
                        OFFSET -2.3927 0 0
                      }
                    }
                  }
                }
                JOINT RightHandThumb1
                {
                  OFFSET -2.4648 -1.5727 2.6826
                  CHANNELS 6 Xposition Yposition Zposition Zrotation Xrotation Yrotation
                  JOINT RightHandThumb2
                  {
                    OFFSET -3.2298 -1.8647 1.8647
                    CHANNELS 6 Xposition Yposition Zposition Zrotation Xrotation Yrotation
                    JOINT RightHandThumb3
                    {
                      OFFSET -2.6526 -1.5314 1.5314
                      CHANNELS 6 Xposition Yposition Zposition Zrotation Xrotation Yrotation
                      End Site
                      {
                        OFFSET -1.9546 -1.1285 1.1285
                      }
                    }
                  }
                }
              }
            }
          }
        }
      }
    }
  }
  JOINT LeftUpLeg
  {
    OFFSET 8.2078 -6.7517 -1.5996
    CHANNELS 6 Xposition Yposition Zposition Zrotation Xrotation Yrotation
    JOINT LeftLeg
    {
      OFFSET 0 -44.3705 0.2846
      CHANNELS 6 Xposition Yposition Zposition Zrotation Xrotation Yrotation
      JOINT LeftFoot
      {
        OFFSET 0 -44.4279 -2.9822
        CHANNELS 6 Xposition Yposition Zposition Zrotation Xrotation Yrotation
        JOINT LeftToeBase
        {
          OFFSET 0 -8.7287 10.7106
          CHANNELS 6 Xposition Yposition Zposition Zrotation Xrotation Yrotation
          End Site
          {
            OFFSET 0 -0.0007 9.2781
          }
        }
      }
    }
  }
  JOINT RightUpLeg
  {
    OFFSET -8.2078 -6.7517 -1.5996
    CHANNELS 6 Xposition Yposition Zposition Zrotation Xrotation Yrotation
    JOINT RightLeg
    {
      OFFSET 0 -44.3705 0.2862
      CHANNELS 6 Xposition Yposition Zposition Zrotation Xrotation Yrotation
      JOINT RightFoot
      {
        OFFSET 0 -44.4277 -2.9838
        CHANNELS 6 Xposition Yposition Zposition Zrotation Xrotation Yrotation
        JOINT RightToeBase
        {
          OFFSET 0 -8.7287 10.7106
          CHANNELS 6 Xposition Yposition Zposition Zrotation Xrotation Yrotation
          End Site
          {
            OFFSET 0 -0.0007 9.2781
          }
        }
      }
    }
  }
}
MOTION
Frames:	4
Frame Time:	0.0333333
0.474988 101.652 1.55443 -5.34711 -1.03648 1.4878 0 10.1816 0.1315 3.00599 1.23321 -1.26437 -4.44089e-016 10.0835 -1.0008 5.94514 0.752117 0.186627 0 9.1 -1.3734 5.85201 0.786763 0.704951 -3.55271e-015 16.6717 -2.5162 -2.16433 1.05607 -0.265001 0 9.6179 1.685 -8.1429 1.4919 0.763161 0 17.8152 2.585 4.96962e-017 -7.95139e-016 -3.97569e-016 3.0676 6.4095 9.2836 4.96962e-017 -7.95139e-016 -3.97569e-016 -3.0676 6.4095 9.2835 4.96962e-017 -7.95139e-016 -3.97569e-016 4.5704 10.946 -2.628 -4.91628 4.76796 -13.4059 10.5924 -0.5246 -2.2321 -83.4376 -3.03978 4.40123 27.8415 -0.0001 0 -0.000204484 2.00441e-006 -14.5068 28.3288 0 0 -10.6347 -27.7681 -1.25465 2.4661 -1.575 2.6824 11.4974 18.0473 -4.08189 3.2298 -1.8647 1.8647 -2.60667 -0.385974 32.7778 2.6526 -1.5315 1.5315 -0.357161 2.0603 9.32366 9.1093 -0.5171 2.2601 -7.82029 -0.300319 4.67047 3.6764 -1.77636e-015 -1.33227e-015 -20.5428 -0.627507 2.77062 2.8831 3.55271e-015 -2.22045e-016 -10.1692 -0.109733 0.805555 9.5334 0 3.55271e-015 -15.6515 -1.50432 8.68081 3.6982 -6.43929e-015 -1.77636e-015 -33.3226 -1.42371 3.82458 2.9509 0 1.77636e-015 -12.2609 -0.148973 1.48565 9.1045 -0.0439 -1.8651 -26.3531 -2.96209 11.5656 3.154 -3.55271e-015 1.77636e-015 -40.1169 -1.19449 4.0564 2.9377 0 0 -19.3347 -0.0921865 1.90337 8.0778 -0.4887 -3.8061 -35.4482 -5.01612 16.192 3.6 7.10543e-015 0 -45.5336 -1.94128 3.8197 2.1142 0 0 -20.5005 -0.542685 2.83389 -4.57 10.9462 -2.628 5.48165 4.80442 2.87905 -10.5928 -0.5248 -2.2321 67.3369 0.135383 1.37814 -27.8415 0 0 -3.34814e-005 -2.85253e-006 17.7366 -28.3288 0 0.0001 10.2635 -12.5926 -6.99996 -8.0767 -0.4885 -3.806 35.4485 -5.01601 -16.1931 -3.6 0 0.0001 45.5337 -1.93991 -3.81801 -2.1142 0 0 22.1247 -0.765435 0.0547828 -9.1036 -0.0439 -1.8651 26.3533 -2.96203 -11.5652 -3.154 -3.55271e-015 0 40.117 -1.1943 -4.05588 -2.9377 0 -1.77636e-015 17.8154 -0.138311 0.0900644 -9.5325 -3.55271e-015 0 15.6516 -1.5043 -8.68055 -3.6982 -8.88178e-016 0 33.3227 -1.42358 -3.82414 -2.9509 0 0 15.8919 -0.253351 -1.67826 -9.1083 -0.5168 2.2601 7.82034 -0.30029 -4.67039 -3.6764 5.32907e-015 0 20.5428 -0.627459 -2.77034 -2.8831 0 4.44089e-016 13.8441 -0.238508 -0.157475 -2.4648 -1.5727 2.6826 -11.4976 18.0469 4.0821 -3.2298 -1.8647 1.8647 2.60804 -0.386608 -32.7764 -2.6526 -1.5314 1.5314 1.1048 1.84593 -8.46826 8.2078 -6.7517 -1.5996 16.2683 -15.879 15.7991 3.55271e-015 -44.3705 0.2846 2.49758 22.4415 8.55256 -7.10543e-015 -44.4279 -2.9822 -8.76836 -1.99994 3.08399 0 -8.7287 10.7106 9.28853e-007 -0.441963 -3.82527e-006 -8.2078 -6.7517 -1.5996 10.5184 -2.47544 -4.58917 -6.66134e-016 -44.3705 0.2862 3.32887 12.1121 -5.7936 -1.77636e-015 -44.4277 -2.9838 -7.87738 -9.87774 -0.339776 0 -8.7287 10.7106 6.34629e-007 -0.548656 8.46463e-007 
0.471384 101.635 1.56602 -5.11079 -0.8019 2.05116 0 10.1816 0.1315 3.00975 0.888891 -1.25211 4.44089e-016 10.0835 -1.0008 5.8812 0.670126 0.190482 0 9.1 -1.3734 5.78892 0.702942 0.697965 3.55271e-015 16.6717 -2.5162 -2.16435 1.07222 -0.207091 0 9.6179 1.685 -8.233 1.79263 1.43786 -8.88178e-016 17.8152 2.585 4.96962e-017 7.95139e-016 -0 3.0676 6.4095 9.2836 4.96962e-017 7.95139e-016 -0 -3.0676 6.4095 9.2835 4.96962e-017 7.95139e-016 -0 4.5704 10.946 -2.628 -4.50097 4.84798 -13.0952 10.5924 -0.5246 -2.2321 -83.606 -2.48545 4.42991 27.8415 -0.0001 0 -0.000193757 1.40711e-006 -14.9268 28.3288 0 8.88178e-016 -10.3931 -27.7869 -0.150681 2.4661 -1.575 2.6824 11.4974 18.0472 -4.08189 3.2298 -1.8647 1.8647 -2.60667 -0.385974 32.7778 2.6526 -1.5315 1.5315 -0.357161 2.0603 9.32366 9.1093 -0.5171 2.2601 -7.82029 -0.300319 4.67047 3.6764 1.77636e-015 -8.88178e-016 -20.5428 -0.627511 2.77063 2.8831 -3.55271e-015 6.66134e-016 -10.1692 -0.109731 0.805555 9.5334 -3.55271e-015 1.77636e-015 -15.6515 -1.50432 8.6808 3.6982 4.44089e-016 8.88178e-016 -33.3226 -1.42371 3.82458 2.9509 0 0 -12.2609 -0.148973 1.48565 9.1045 -0.0439 -1.8651 -26.3531 -2.9621 11.5656 3.154 0 1.77636e-015 -40.1169 -1.19449 4.0564 2.9377 -7.10543e-015 0 -19.3347 -0.0921839 1.90338 8.0778 -0.4887 -3.8061 -35.4482 -5.01613 16.192 3.6 7.10543e-015 3.55271e-015 -45.5336 -1.94128 3.8197 2.1142 -1.42109e-014 0 -20.5005 -0.542688 2.83389 -4.57 10.9462 -2.628 5.30444 4.92663 2.54852 -10.5928 -0.5248 -2.2321 67.375 0.611956 1.06763 -27.8415 0 0 3.86814e-006 -1.32859e-006 18.0871 -28.3288 7.10543e-015 0.0001 9.95103 -13.081 -7.32775 -8.0767 -0.4885 -3.806 36.4855 -5.27822 -16.1365 -3.6 0 0.0001 46.5964 -2.02058 -3.88775 -2.1142 -1.42109e-014 3.55271e-015 23.1886 -0.814857 -0.0399578 -9.1036 -0.0439 -1.8651 27.4106 -3.1024 -11.599 -3.154 3.55271e-015 0 41.1838 -1.26022 -4.13893 -2.9377 0 0 18.8797 -0.161628 -0.0133627 -9.5325 1.77636e-015 1.77636e-015 16.778 -1.64146 -8.74599 -3.6982 0 8.88178e-016 34.4544 -1.50223 -3.90813 -2.9509 7.10543e-015 8.88178e-016 17.0244 -0.287394 -1.78579 -9.1083 -0.5168 2.2601 9.09399 -0.412966 -4.79979 -3.6764 -1.77636e-015 8.88178e-016 21.8209 -0.690578 -2.88434 -2.8831 3.55271e-015 0 15.1231 -0.270696 -0.282079 -2.4648 -1.5727 2.6826 -11.7039 18.2479 4.30035 -3.2298 -1.8647 1.8647 2.60804 -0.386608 -32.7764 -2.6526 -1.5314 1.5314 1.1048 1.84593 -8.46826 8.2078 -6.7517 -1.5996 15.944 -16.2216 15.7737 -3.55271e-015 -44.3705 0.2846 2.49834 22.2902 8.07855 0 -44.4279 -2.9822 -8.63508 -1.91127 3.08983 0 -8.7287 10.7106 -1.7717e-006 -0.33136 1.08025e-005 -8.2078 -6.7517 -1.5996 10.2537 -2.95188 -4.53869 -1.77636e-015 -44.3705 0.2862 3.43978 12.467 -5.84198 0 -44.4277 -2.9838 -7.95388 -10.0378 -0.877982 0 -8.7287 10.7106 2.68423e-007 -0.574338 -2.22638e-006 
0.522343 101.603 1.52118 -4.8125 -0.527426 2.85932 0 10.1816 0.1315 2.91319 0.727769 -1.18575 4.44089e-016 10.0835 -1.0008 5.62734 0.532164 0.18932 -1.77636e-015 9.1 -1.3734 5.5392 0.560815 0.673472 0 16.6717 -2.5162 -2.16436 1.06697 -0.126963 3.55271e-015 9.6179 1.685 -8.14841 1.93763 2.31221 0 17.8152 2.585 -0 0 7.95139e-016 3.0676 6.4095 9.2836 -0 0 7.95139e-016 -3.0676 6.4095 9.2835 -0 0 7.95139e-016 4.5704 10.946 -2.628 -4.12435 4.93945 -12.7934 10.5924 -0.5246 -2.2321 -83.3073 -1.28014 4.15366 27.8415 -0.0001 0 -0.000224376 4.92312e-006 -15.7446 28.3288 0 0 -9.32827 -27.4728 2.63389 2.4661 -1.575 2.6824 11.4973 18.0473 -4.08187 3.2298 -1.8647 1.8647 -2.60667 -0.385974 32.7778 2.6526 -1.5315 1.5315 -0.357161 2.0603 9.32366 9.1093 -0.5171 2.2601 -7.82031 -0.300319 4.67047 3.6764 1.77636e-015 -4.44089e-016 -20.5428 -0.627507 2.77063 2.8831 3.55271e-015 1.33227e-015 -10.1692 -0.109732 0.805553 9.5334 -3.55271e-015 0 -15.6515 -1.50432 8.68081 3.6982 2.22045e-016 8.88178e-016 -33.3226 -1.42372 3.82459 2.9509 -7.10543e-015 -1.77636e-015 -12.2609 -0.148974 1.48565 9.1045 -0.0439 -1.8651 -26.3531 -2.96209 11.5656 3.154 -1.77636e-015 0 -40.1169 -1.19449 4.0564 2.9377 0 0 -19.3347 -0.0921875 1.90338 8.0778 -0.4887 -3.8061 -35.4482 -5.01612 16.192 3.6 3.55271e-015 0 -45.5336 -1.94128 3.81971 2.1142 1.42109e-014 0 -20.5005 -0.542689 2.83389 -4.57 10.9462 -2.628 5.07546 5.05959 2.18869 -10.5928 -0.5248 -2.2321 67.3995 1.04779 0.700582 -27.8415 -7.10543e-015 -3.55271e-015 3.20617e-006 2.22894e-007 18.6987 -28.3288 7.10543e-015 0.0001 9.62956 -13.6553 -8.41636 -8.0767 -0.4885 -3.806 39.363 -6.00853 -15.9664 -3.6 0 0.0001 49.543 -2.25087 -4.07318 -2.1142 -1.42109e-014 0 26.138 -0.961005 -0.297679 -9.1036 -0.0439 -1.8651 30.3431 -3.4965 -11.6783 -3.154 0 3.55271e-015 44.1409 -1.45091 -4.36261 -2.9377 0 -1.77636e-015 21.8307 -0.236287 -0.297668 -9.5325 1.77636e-015 0 19.9003 -2.03003 -8.91503 -3.6982 0 -4.44089e-016 37.5921 -1.7288 -4.13272 -2.9509 0 0 20.164 -0.392816 -2.08018 -9.1083 -0.5168 2.2601 12.6247 -0.738456 -5.14395 -3.6764 2.22045e-016 -4.44089e-016 25.3642 -0.878705 -3.19276 -2.8831 0 0 18.6691 -0.37439 -0.623469 -2.4648 -1.5727 2.6826 -12.282 18.8016 4.90972 -3.2298 -1.8647 1.8647 2.60804 -0.386608 -32.7764 -2.6526 -1.5314 1.5314 1.1048 1.84593 -8.46826 8.2078 -6.7517 -1.5996 15.4429 -16.7449 15.6523 7.10543e-015 -44.3705 0.2846 2.55164 22.1711 7.52186 0 -44.4279 -2.9822 -8.43648 -1.78537 3.10019 1.77636e-015 -8.7287 10.7106 2.03204e-007 -0.328409 -2.13988e-007 -8.2078 -6.7517 -1.5996 9.88425 -3.66947 -4.48056 -3.33067e-016 -44.3705 0.2862 3.56797 13.102 -5.93399 -8.88178e-016 -44.4277 -2.9838 -8.00841 -10.2894 -1.61074 4.44089e-016 -8.7287 10.7106 -9.84901e-007 -0.637214 1.3243e-006 
0.612055 101.538 1.40151 -4.47726 -0.366961 3.86587 8.88178e-016 10.1816 0.1315 2.71439 0.95023 -1.06233 0 10.0835 -1.0008 5.2267 0.38697 0.198768 0 9.1 -1.3734 5.14438 0.40984 0.645128 0 16.6717 -2.5162 -2.14743 1.0225 -0.00139155 -3.55271e-015 9.6179 1.685 -7.8408 1.65621 3.64064 0 17.8152 2.585 2.98177e-016 0 -0 3.0676 6.4095 9.2836 2.98177e-016 0 -0 -3.0676 6.4095 9.2835 2.98177e-016 0 -0 4.5704 10.946 -2.628 -3.87022 4.99558 -12.6484 10.5924 -0.5246 -2.2321 -82.5319 0.00609897 3.45093 27.8415 -0.0001 0 -0.000240242 1.47601e-006 -17.0297 28.3288 7.10543e-015 8.88178e-016 -6.7408 -27.3101 6.63845 2.4661 -1.575 2.6824 11.4974 18.0473 -4.08189 3.2298 -1.8647 1.8647 -2.60667 -0.385974 32.7778 2.6526 -1.5315 1.5315 -0.357161 2.0603 9.32366 9.1093 -0.5171 2.2601 -7.82029 -0.300321 4.67047 3.6764 0 4.44089e-016 -20.5428 -0.62751 2.77062 2.8831 -1.77636e-015 0 -10.1692 -0.109732 0.805557 9.5334 0 0 -15.6515 -1.50432 8.6808 3.6982 -8.88178e-016 0 -33.3226 -1.42372 3.82458 2.9509 -7.10543e-015 -3.55271e-015 -12.2609 -0.148972 1.48565 9.1045 -0.0439 -1.8651 -26.3531 -2.96209 11.5656 3.154 1.77636e-015 3.55271e-015 -40.1169 -1.19449 4.0564 2.9377 7.10543e-015 7.10543e-015 -19.3347 -0.0921859 1.90338 8.0778 -0.4887 -3.8061 -35.4482 -5.01613 16.192 3.6 -3.55271e-015 3.55271e-015 -45.5336 -1.94128 3.8197 2.1142 1.42109e-014 3.55271e-015 -20.5005 -0.542687 2.83389 -4.57 10.9462 -2.628 4.82063 5.10808 2.04319 -10.5928 -0.5248 -2.2321 67.3209 1.1087 0.319358 -27.8415 0 0 2.29193e-005 3.84475e-006 19.7215 -28.3288 -7.10543e-015 0.0001 9.28263 -14.0864 -10.1548 -8.0767 -0.4885 -3.806 43.7379 -7.12444 -15.671 -3.6 7.10543e-015 0.0001 54.0152 -2.61784 -4.33145 -2.1142 -1.42109e-014 -3.55271e-015 30.6139 -1.20766 -0.673652 -9.1036 -0.0439 -1.8651 34.7952 -4.10634 -11.7585 -3.154 3.55271e-015 0 48.6286 -1.76175 -4.6826 -2.9377 0 1.77636e-015 26.3092 -0.377312 -0.720913 -9.5325 -3.55271e-015 1.77636e-015 24.6382 -2.64085 -9.13559 -3.6982 1.77636e-015 -8.88178e-016 42.3539 -2.09533 -4.44913 -2.9509 1.42109e-014 0 24.9287 -0.583228 -2.51489 -9.1083 -0.5168 2.2601 17.9815 -1.2667 -5.62318 -3.6764 -3.55271e-015 0 30.7409 -1.19974 -3.63723 -2.8831 1.42109e-014 8.88178e-016 24.0504 -0.571601 -1.12775 -2.4648 -1.5727 2.6826 -13.177 19.6312 5.84678 -3.2298 -1.8647 1.8647 2.60804 -0.386608 -32.7764 -2.6526 -1.5314 1.5314 1.1048 1.84593 -8.46826 8.2078 -6.7517 -1.5996 14.7835 -17.3378 15.4029 3.55271e-015 -44.3705 0.2846 2.73869 22.1975 6.83412 -3.55271e-015 -44.4279 -2.9822 -8.2432 -1.68152 3.10114 1.77636e-015 -8.7287 10.7106 1.16364e-006 -0.326002 2.96625e-005 -8.2078 -6.7517 -1.5996 9.49812 -4.52094 -4.36669 7.77156e-016 -44.3705 0.2862 3.62817 14.1256 -6.02174 -4.44089e-016 -44.4277 -2.9838 -8.0167 -10.6765 -2.63403 4.44089e-016 -8.7287 10.7106 -1.28034e-006 -0.705795 5.10721e-006 
